<?xml version="1.0" encoding="UTF-8"?>
<svg width="700pt" height="700pt" version="1.1" viewBox="0 0 700 700" xmlns="http://www.w3.org/2000/svg" xmlns:xlink="http://www.w3.org/1999/xlink">
 <defs>
  <symbol id="v" overflow="visible">
   <path d="m14.656-0.875c-0.76172 0.39844-1.5547 0.69531-2.375 0.89062-0.8125 0.19531-1.6641 0.29688-2.5469 0.29688-2.6562 0-4.7617-0.73828-6.3125-2.2188-1.5547-1.4883-2.3281-3.5039-2.3281-6.0469 0-2.5508 0.77344-4.5664 2.3281-6.0469 1.5508-1.4883 3.6562-2.2344 6.3125-2.2344 0.88281 0 1.7344 0.10156 2.5469 0.29688 0.82031 0.19922 1.6133 0.49609 2.375 0.89062v3.2969c-0.76172-0.51953-1.5117-0.89844-2.25-1.1406-0.74219-0.23828-1.5234-0.35938-2.3438-0.35938-1.4688 0-2.625 0.46875-3.4688 1.4062-0.83594 0.9375-1.25 2.2344-1.25 3.8906 0 1.6484 0.41406 2.9375 1.25 3.875 0.84375 0.9375 2 1.4062 3.4688 1.4062 0.82031 0 1.6016-0.11719 2.3438-0.35938 0.73828-0.23828 1.4883-0.61719 2.25-1.1406z"/>
  </symbol>
  <symbol id="c" overflow="visible">
   <path d="m10.719-8.7031c-0.33594-0.15625-0.66797-0.26953-1-0.34375-0.32422-0.082031-0.65625-0.125-1-0.125-0.98047 0-1.7344 0.32031-2.2656 0.95312-0.53125 0.625-0.79688 1.5273-0.79688 2.7031v5.5156h-3.8125v-11.969h3.8125v1.9688c0.48828-0.78125 1.0508-1.3477 1.6875-1.7031 0.64453-0.36328 1.4102-0.54688 2.2969-0.54688 0.13281 0 0.27344 0.007812 0.42188 0.015625 0.14453 0.011719 0.36328 0.03125 0.65625 0.0625z"/>
  </symbol>
  <symbol id="a" overflow="visible">
   <path d="m13.781-6.0156v1.0938h-8.9375c0.09375 0.89844 0.41406 1.5703 0.96875 2.0156 0.55078 0.44922 1.3281 0.67188 2.3281 0.67188 0.80078 0 1.625-0.11719 2.4688-0.35938 0.84375-0.23828 1.7109-0.59766 2.6094-1.0781v2.9531c-0.90625 0.33594-1.8125 0.58984-2.7188 0.76562s-1.8125 0.26562-2.7188 0.26562c-2.1562 0-3.8398-0.54688-5.0469-1.6406-1.1992-1.1016-1.7969-2.6484-1.7969-4.6406 0-1.9453 0.58594-3.4766 1.7656-4.5938 1.1758-1.125 2.8008-1.6875 4.875-1.6875 1.875 0 3.375 0.57031 4.5 1.7031 1.1328 1.125 1.7031 2.6367 1.7031 4.5312zm-3.9375-1.2656c0-0.72656-0.21484-1.3125-0.64062-1.75-0.41797-0.44531-0.96875-0.67188-1.6562-0.67188-0.74219 0-1.3438 0.21094-1.8125 0.625-0.46094 0.41797-0.74609 1.0156-0.85938 1.7969z"/>
  </symbol>
  <symbol id="i" overflow="visible">
   <path d="m7.2031-5.3906c-0.80469 0-1.4062 0.13672-1.8125 0.40625-0.39844 0.27344-0.59375 0.67188-0.59375 1.2031 0 0.48047 0.16016 0.85938 0.48438 1.1406 0.32031 0.27344 0.77344 0.40625 1.3594 0.40625 0.71875 0 1.3203-0.25391 1.8125-0.76562 0.48828-0.51953 0.73438-1.1719 0.73438-1.9531v-0.4375zm5.8438-1.4375v6.8281h-3.8594v-1.7656c-0.51172 0.71875-1.0898 1.2461-1.7344 1.5781-0.63672 0.33203-1.418 0.5-2.3438 0.5-1.2422 0-2.2461-0.35938-3.0156-1.0781-0.77344-0.72656-1.1562-1.6719-1.1562-2.8281 0-1.3945 0.47656-2.4219 1.4375-3.0781 0.96875-0.65625 2.4883-0.98438 4.5625-0.98438h2.25v-0.29688c0-0.60156-0.24219-1.0469-0.71875-1.3281-0.48047-0.28125-1.2266-0.42188-2.2344-0.42188-0.8125 0-1.5742 0.085937-2.2812 0.25-0.71094 0.15625-1.3672 0.40234-1.9688 0.73438v-2.9219c0.82031-0.19531 1.6445-0.34766 2.4688-0.45312 0.82031-0.10156 1.6484-0.15625 2.4844-0.15625 2.1562 0 3.7109 0.42969 4.6719 1.2812 0.95703 0.84375 1.4375 2.2266 1.4375 4.1406z"/>
  </symbol>
  <symbol id="b" overflow="visible">
   <path d="m6.0156-15.359v3.3906h3.9375v2.7344h-3.9375v5.0781c0 0.55469 0.10938 0.92969 0.32812 1.125 0.21875 0.19922 0.65625 0.29688 1.3125 0.29688h1.9688v2.7344h-3.2812c-1.5117 0-2.5859-0.3125-3.2188-0.9375-0.625-0.63281-0.9375-1.707-0.9375-3.2188v-5.0781h-1.9062v-2.7344h1.9062v-3.3906z"/>
  </symbol>
  <symbol id="h" overflow="visible">
   <path d="m9.9688-10.219v-6.4062h3.8594v16.625h-3.8594v-1.7344c-0.52344 0.71094-1.1016 1.2305-1.7344 1.5625-0.63672 0.32031-1.3711 0.48438-2.2031 0.48438-1.4688 0-2.6797-0.58203-3.625-1.75-0.94922-1.1758-1.4219-2.6875-1.4219-4.5312s0.47266-3.3477 1.4219-4.5156c0.94531-1.1758 2.1562-1.7656 3.625-1.7656 0.83203 0 1.5664 0.16797 2.2031 0.5 0.63281 0.32422 1.2109 0.83594 1.7344 1.5312zm-2.5156 7.75c0.82031 0 1.4453-0.29688 1.875-0.89062 0.42578-0.60156 0.64062-1.4727 0.64062-2.6094 0-1.1445-0.21484-2.0156-0.64062-2.6094-0.42969-0.59375-1.0547-0.89062-1.875-0.89062-0.8125 0-1.4336 0.29688-1.8594 0.89062-0.42969 0.59375-0.64062 1.4648-0.64062 2.6094 0 1.1367 0.21094 2.0078 0.64062 2.6094 0.42578 0.59375 1.0469 0.89062 1.8594 0.89062z"/>
  </symbol>
  <symbol id="g" overflow="visible">
   <path d="m8.2031-2.4688c0.82031 0 1.4453-0.29688 1.875-0.89062 0.42578-0.60156 0.64062-1.4727 0.64062-2.6094 0-1.1445-0.21484-2.0156-0.64062-2.6094-0.42969-0.59375-1.0547-0.89062-1.875-0.89062-0.82422 0-1.4531 0.30469-1.8906 0.90625-0.4375 0.59375-0.65625 1.4609-0.65625 2.5938 0 1.1367 0.21875 2.0078 0.65625 2.6094 0.4375 0.59375 1.0664 0.89062 1.8906 0.89062zm-2.5469-7.75c0.53125-0.69531 1.1133-1.207 1.75-1.5312 0.64453-0.33203 1.3828-0.5 2.2188-0.5 1.4688 0 2.6758 0.58984 3.625 1.7656 0.94531 1.168 1.4219 2.6719 1.4219 4.5156s-0.47656 3.3555-1.4219 4.5312c-0.94922 1.168-2.1562 1.75-3.625 1.75-0.83594 0-1.5742-0.16797-2.2188-0.5-0.63672-0.33203-1.2188-0.84766-1.75-1.5469v1.7344h-3.8125v-16.625h3.8125z"/>
  </symbol>
  <symbol id="f" overflow="visible">
   <path d="m0.26562-11.969h3.8281l3.2188 8.125 2.7344-8.125h3.8125l-5.0312 13.094c-0.5 1.332-1.0898 2.2656-1.7656 2.7969-0.66797 0.53125-1.5547 0.79688-2.6562 0.79688h-2.2188v-2.5h1.2031c0.64453 0 1.1133-0.10547 1.4062-0.3125 0.30078-0.21094 0.53125-0.57812 0.6875-1.1094l0.10938-0.34375z"/>
  </symbol>
  <symbol id="e" overflow="visible">
   <path d="m2.0156-15.953h4.1094v12.844h7.2188v3.1094h-11.328z"/>
  </symbol>
  <symbol id="u" overflow="visible">
   <path d="m11.688-2.9062h-6.4375l-1.0156 2.9062h-4.125l5.9062-15.953h4.9062l5.9062 15.953h-4.1406zm-5.4062-2.9531h4.375l-2.1875-6.3438z"/>
  </symbol>
  <symbol id="t" overflow="visible">
   <path d="m2.0156-15.953h11.094v3.1094h-6.9844v2.9688h6.5625v3.1094h-6.5625v6.7656h-4.1094z"/>
  </symbol>
  <symbol id="s" overflow="visible">
   <path d="m13.109-15.438v3.375c-0.875-0.39453-1.7305-0.69141-2.5625-0.89062-0.83594-0.19531-1.6211-0.29688-2.3594-0.29688-0.99219 0-1.7188 0.13672-2.1875 0.40625-0.46875 0.27344-0.70312 0.6875-0.70312 1.25 0 0.42969 0.15625 0.76172 0.46875 1 0.32031 0.24219 0.89844 0.44922 1.7344 0.625l1.75 0.34375c1.7695 0.35547 3.0312 0.89844 3.7812 1.625 0.75 0.73047 1.125 1.7617 1.125 3.0938 0 1.7617-0.52734 3.0742-1.5781 3.9375-1.043 0.85547-2.6328 1.2812-4.7656 1.2812-1.0117 0-2.0273-0.10156-3.0469-0.29688-1.0234-0.1875-2.043-0.46875-3.0625-0.84375v-3.4688c1.0195 0.53125 2.0039 0.9375 2.9531 1.2188 0.95703 0.27344 1.875 0.40625 2.75 0.40625 0.90625 0 1.5938-0.14453 2.0625-0.4375 0.47656-0.30078 0.71875-0.73438 0.71875-1.2969 0-0.48828-0.16406-0.86719-0.48438-1.1406-0.32422-0.26953-0.96875-0.51562-1.9375-0.73438l-1.5938-0.35938c-1.5938-0.33203-2.7617-0.875-3.5-1.625-0.74219-0.75-1.1094-1.7578-1.1094-3.0312 0-1.582 0.50781-2.8008 1.5312-3.6562 1.0312-0.85156 2.5078-1.2812 4.4375-1.2812 0.875 0 1.7734 0.070313 2.7031 0.20312 0.92578 0.125 1.8828 0.32422 2.875 0.59375z"/>
  </symbol>
  <symbol id="r" overflow="visible">
   <path d="m9.7031-16.625v2.5156h-2.1094c-0.54297 0-0.92188 0.10156-1.1406 0.29688-0.21094 0.19922-0.3125 0.53906-0.3125 1.0156v0.82812h3.2656v2.7344h-3.2656v9.2344h-3.8281v-9.2344h-1.8906v-2.7344h1.8906v-0.82812c0-1.3008 0.36328-2.2656 1.0938-2.8906 0.72656-0.625 1.8516-0.9375 3.375-0.9375z"/>
  </symbol>
  <symbol id="d" overflow="visible">
   <path d="m7.5312-9.5156c-0.84375 0-1.4922 0.30859-1.9375 0.92188-0.44922 0.60547-0.67188 1.4805-0.67188 2.625 0 1.1484 0.22266 2.0273 0.67188 2.6406 0.44531 0.60547 1.0938 0.90625 1.9375 0.90625 0.83203 0 1.4688-0.30078 1.9062-0.90625 0.44531-0.61328 0.67188-1.4922 0.67188-2.6406 0-1.1445-0.22656-2.0195-0.67188-2.625-0.4375-0.61328-1.0742-0.92188-1.9062-0.92188zm0-2.7344c2.0508 0 3.6562 0.55859 4.8125 1.6719 1.1641 1.1055 1.75 2.6406 1.75 4.6094s-0.58594 3.5117-1.75 4.625c-1.1562 1.1055-2.7617 1.6562-4.8125 1.6562-2.0625 0-3.6797-0.55078-4.8438-1.6562-1.168-1.1133-1.75-2.6562-1.75-4.625s0.58203-3.5039 1.75-4.6094c1.1641-1.1133 2.7812-1.6719 4.8438-1.6719z"/>
  </symbol>
  <symbol id="q" overflow="visible">
   <path d="m12.922-9.9688c0.48828-0.75 1.0625-1.3164 1.7188-1.7031 0.66406-0.38281 1.3984-0.57812 2.2031-0.57812 1.375 0 2.4219 0.42969 3.1406 1.2812 0.71875 0.84375 1.0781 2.0742 1.0781 3.6875v7.2812h-3.8438v-6.2344c0.007812-0.09375 0.015625-0.1875 0.015625-0.28125v-0.4375c0-0.84375-0.125-1.457-0.375-1.8438-0.25-0.38281-0.65234-0.57812-1.2031-0.57812-0.73047 0-1.293 0.30469-1.6875 0.90625-0.38672 0.59375-0.58984 1.4609-0.60938 2.5938v5.875h-3.8438v-6.2344c0-1.3203-0.11719-2.1758-0.34375-2.5625-0.23047-0.38281-0.63672-0.57812-1.2188-0.57812-0.73047 0-1.2969 0.30469-1.7031 0.90625-0.39844 0.60547-0.59375 1.4648-0.59375 2.5781v5.8906h-3.8438v-11.969h3.8438v1.75c0.46875-0.66406 1.0039-1.1719 1.6094-1.5156 0.61328-0.34375 1.2891-0.51562 2.0312-0.51562 0.82031 0 1.5508 0.19922 2.1875 0.59375 0.63281 0.39844 1.1133 0.96094 1.4375 1.6875z"/>
  </symbol>
  <symbol id="p" overflow="visible">
   <path d="m13.859-7.2812v7.2812h-3.8438v-5.5469c0-1.0508-0.027344-1.7695-0.078125-2.1562-0.042969-0.39453-0.12109-0.6875-0.23438-0.875-0.14844-0.25-0.35156-0.44141-0.60938-0.57812-0.25-0.14453-0.54297-0.21875-0.875-0.21875-0.79297 0-1.418 0.3125-1.875 0.9375-0.46094 0.61719-0.6875 1.4648-0.6875 2.5469v5.8906h-3.8125v-16.625h3.8125v6.4062c0.58203-0.69531 1.1953-1.207 1.8438-1.5312 0.64453-0.33203 1.3594-0.5 2.1406-0.5 1.3828 0 2.4297 0.42969 3.1406 1.2812 0.71875 0.84375 1.0781 2.0742 1.0781 3.6875z"/>
  </symbol>
  <symbol id="o" overflow="visible">
   <path d="m2.0156-15.953h4.5781l5.8125 10.938v-10.938h3.8906v15.953h-4.5938l-5.7969-10.938v10.938h-3.8906z"/>
  </symbol>
  <symbol id="n" overflow="visible">
   <path d="m1.7031-4.6562v-7.3125h3.8438v1.2031c0 0.64844-0.007813 1.4609-0.015625 2.4375v1.9688c0 0.96094 0.023438 1.6523 0.078125 2.0781 0.050781 0.41797 0.13281 0.72656 0.25 0.92188 0.15625 0.25 0.35938 0.44531 0.60938 0.57812 0.25781 0.13672 0.55078 0.20312 0.875 0.20312 0.80078 0 1.4258-0.30469 1.875-0.92188 0.45703-0.61328 0.6875-1.4688 0.6875-2.5625v-5.9062h3.8281v11.969h-3.8281v-1.7344c-0.57422 0.69922-1.1836 1.2148-1.8281 1.5469-0.64844 0.33203-1.3555 0.5-2.125 0.5-1.3867 0-2.4453-0.42188-3.1719-1.2656-0.71875-0.85156-1.0781-2.0859-1.0781-3.7031z"/>
  </symbol>
  <symbol id="m" overflow="visible">
   <path d="m13.859-7.2812v7.2812h-3.8438v-5.5781c0-1.0312-0.027344-1.7383-0.078125-2.125-0.042969-0.39453-0.12109-0.6875-0.23438-0.875-0.14844-0.25-0.35156-0.44141-0.60938-0.57812-0.25-0.14453-0.54297-0.21875-0.875-0.21875-0.79297 0-1.418 0.3125-1.875 0.9375-0.46094 0.61719-0.6875 1.4648-0.6875 2.5469v5.8906h-3.8125v-11.969h3.8125v1.75c0.58203-0.69531 1.1953-1.207 1.8438-1.5312 0.64453-0.33203 1.3594-0.5 2.1406-0.5 1.3828 0 2.4297 0.42969 3.1406 1.2812 0.71875 0.84375 1.0781 2.0742 1.0781 3.6875z"/>
  </symbol>
  <symbol id="l" overflow="visible">
   <path d="m2.0156-15.953h6.8125c2.0312 0 3.5859 0.45312 4.6719 1.3594 1.0938 0.89844 1.6406 2.1797 1.6406 3.8438 0 1.6797-0.54688 2.9688-1.6406 3.875-1.0859 0.89844-2.6406 1.3438-4.6719 1.3438h-2.7031v5.5312h-4.1094zm4.1094 2.9844v4.4531h2.2656c0.80078 0 1.4141-0.19141 1.8438-0.57812 0.4375-0.38281 0.65625-0.9375 0.65625-1.6562 0-0.70703-0.21875-1.2539-0.65625-1.6406-0.42969-0.38281-1.043-0.57812-1.8438-0.57812z"/>
  </symbol>
  <symbol id="k" overflow="visible">
   <path d="m1.8438-11.969h3.8125v11.75c0 1.6016-0.38672 2.8281-1.1562 3.6719-0.76172 0.84375-1.8711 1.2656-3.3281 1.2656h-1.8906v-2.5h0.65625c0.72656 0 1.2266-0.16797 1.5-0.5 0.26953-0.32422 0.40625-0.96875 0.40625-1.9375zm0-4.6562h3.8125v3.125h-3.8125z"/>
  </symbol>
  <symbol id="j" overflow="visible">
   <path d="m11.5-11.594v3.125c-0.52344-0.35156-1.043-0.61328-1.5625-0.78125-0.52344-0.17578-1.0625-0.26562-1.625-0.26562-1.0742 0-1.9062 0.3125-2.5 0.9375s-0.89062 1.4961-0.89062 2.6094c0 1.1172 0.29688 1.9844 0.89062 2.6094s1.4258 0.9375 2.5 0.9375c0.59375 0 1.1562-0.085937 1.6875-0.26562 0.53906-0.17578 1.0391-0.44141 1.5-0.79688v3.125c-0.59375 0.23047-1.1992 0.39453-1.8125 0.5-0.61719 0.11328-1.2344 0.17188-1.8594 0.17188-2.1562 0-3.8438-0.55078-5.0625-1.6562-1.2188-1.1133-1.8281-2.6562-1.8281-4.625s0.60938-3.5039 1.8281-4.6094c1.2188-1.1133 2.9062-1.6719 5.0625-1.6719 0.625 0 1.2383 0.058594 1.8438 0.17188 0.61328 0.10547 1.2227 0.26562 1.8281 0.48438z"/>
  </symbol>
 </defs>
 <g>
  <path d="m350 358.23c26.051 0 51.031-10.348 69.449-28.77 18.422-18.418 28.77-43.402 28.77-69.449 0-26.051-10.348-51.031-28.77-69.453-18.418-18.418-43.398-28.766-69.449-28.766s-51.031 10.348-69.449 28.766c-18.422 18.422-28.77 43.402-28.77 69.453 0.035156 26.035 10.395 51 28.805 69.41 18.414 18.414 43.375 28.773 69.414 28.809zm0-187.6c23.734 0 46.496 9.4297 63.273 26.215 16.781 16.785 26.203 39.551 26.195 63.281-0.007812 23.734-9.4453 46.492-26.234 63.266-16.793 16.777-39.559 26.191-63.293 26.176s-46.488-9.4609-63.258-26.258c-16.77-16.793-26.176-39.566-26.152-63.297 0.058594-23.703 9.5039-46.418 26.273-63.172 16.77-16.75 39.492-26.176 63.195-26.211z"/>
  <path d="m257.38 176.57-19.555 10.105h-0.003906c-3.9805 2.082-6.4023 6.2773-6.2109 10.766l1.0078 21.875h-0.003906c0.03125 0.67969-0.18359 1.3477-0.60938 1.8789l-13.738 17.195c-2.8047 3.5195-3.3164 8.3477-1.3125 12.379l9.8438 19.688c0.23828 0.63672 0.23828 1.3359 0 1.9688l-5.5547 21.305-0.003906 0.003906c-1.1289 4.3633 0.37109 8.9883 3.8516 11.855l17.02 13.957c0.53125 0.42578 0.89062 1.0312 1.0039 1.707l3.5859 21.875h0.003906c0.75 4.4258 3.9883 8.0234 8.3125 9.2305l3.1484 0.875-19.598 60.77c-0.5 1.5547-0.089843 3.2578 1.0586 4.4141 1.1484 1.1602 2.8516 1.582 4.4102 1.0977l39.723-12.645 24.762 33.469c0.82031 1.1172 2.1172 1.7852 3.5 1.793h0.70312c1.6172-0.26562 2.9531-1.4141 3.4531-2.9727l17.5-53.945 9.9766 6.3867c3.8008 2.4258 8.668 2.4258 12.469 0l9.9766-6.3867 17.5 53.945c0.5 1.5586 1.8359 2.707 3.4531 2.9727h0.70312c1.3828-0.007813 2.6797-0.67578 3.5-1.793l24.98-33.469 39.727 12.469h-0.003906c1.5508 0.47266 3.2344 0.050781 4.375-1.0938 1.1328-1.1523 1.5352-2.8359 1.0508-4.375l-19.773-60.68 3.1484-0.875c4.3242-1.2109 7.5625-4.8047 8.3125-9.2344l3.5859-21.875h0.003906c0.11328-0.67188 0.47266-1.2773 1.0039-1.7031l17.02-13.957c3.4805-2.8672 4.9805-7.4922 3.8516-11.855l-5.5586-21.133c-0.24219-0.63281-0.24219-1.3359 0-1.9688l9.8438-19.688c2.0039-4.0312 1.4922-8.8594-1.3125-12.383l-13.387-17.191c-0.42578-0.53125-0.64453-1.2031-0.61328-1.8828l1.0078-21.875c0.1875-4.4883-2.2305-8.6797-6.2148-10.762l-19.512-10.105c-0.60547-0.32031-1.0703-0.84766-1.3125-1.4883l-8.3555-20.605c-1.6523-4.1797-5.5742-7.0273-10.062-7.3086l-21.875-1.3125c-0.67188-0.035157-1.3086-0.31641-1.793-0.78516l-15.664-15.445c-3.2031-3.1562-7.9492-4.1602-12.16-2.582l-20.605 7.7422-0.003906 0.003906c-0.63281 0.23047-1.332 0.23047-1.9688 0l-20.605-7.7422v-0.003906c-4.2109-1.5703-8.9492-0.5625-12.16 2.582l-15.664 15.445c-0.48438 0.46484-1.1211 0.74609-1.793 0.78516l-21.875 1.3125c-4.4727 0.29687-8.3711 3.1406-10.02 7.3086l-8.1797 20.387c-0.22266 0.67188-0.69141 1.2344-1.3125 1.5742zm53.242 251.96-21.875-29.18c-1.1055-1.4961-3.0352-2.1289-4.8125-1.5781l-34.562 10.852 17.5-53.113 9.625 2.668c0.64453 0.17969 1.2031 0.58594 1.5742 1.1406l12.117 18.375h0.003906c2.4766 3.7656 6.918 5.7461 11.375 5.0742l21.875-3.2812c0.66797-0.10156 1.3477 0.039063 1.9219 0.39453l0.91797 0.61328zm140-19.906-34.605-10.852c-1.7773-0.55078-3.707 0.082031-4.8125 1.5781l-21.832 29.18-15.531-47.906 0.91797-0.61328c0.57422-0.35547 1.2578-0.49609 1.9258-0.39453l21.875 3.2812c4.457 0.67578 8.8984-1.3086 11.375-5.0742l12.117-18.375c0.38281-0.5625 0.96094-0.96875 1.6211-1.1367l9.625-2.668zm-189.22-224.26c2.5-1.2773 4.4414-3.4258 5.4688-6.0391l8.0508-20.477v0.003906c0.39453-1.0273 1.3516-1.7305 2.4492-1.7969l21.875-1.3125c2.793-0.15625 5.4375-1.3203 7.4375-3.2812l15.664-15.445v0.003906c0.78125-0.74609 1.9141-0.98047 2.9297-0.61328l20.605 7.7422c2.625 0.98828 5.5156 0.98828 8.1367 0l20.605-7.7422h0.003906c1.0117-0.37891 2.1523-0.14062 2.9297 0.61328l15.664 15.445v-0.003906c2 1.9609 4.6406 3.125 7.4375 3.2812l21.875 1.3125c1.0977 0.066406 2.0547 0.76953 2.4492 1.7969l8.1367 20.43c1.0156 2.6055 2.9414 4.75 5.4258 6.0391l19.512 10.105c0.98047 0.49609 1.582 1.5234 1.5312 2.625l-1.0078 21.875c-0.13281 2.7969 0.75391 5.5508 2.4961 7.7422l13.738 17.195c0.68359 0.85938 0.80469 2.0391 0.30469 3.0195l-9.7578 19.992c-1.2656 2.5-1.5781 5.3789-0.875 8.0938l5.5547 21.305h0.003906c0.28516 1.0625-0.074219 2.1914-0.91797 2.8906l-17.02 13.957v-0.003906c-2.168 1.7773-3.6172 4.2812-4.0703 7.0469l-3.5859 21.875c-0.18359 1.0703-0.96484 1.9375-2.0117 2.2305l-21.219 5.8633c-2.6328 0.59766-4.9688 2.0977-6.6094 4.2422l-12.117 18.508c-0.60938 0.90234-1.6797 1.375-2.7578 1.2227l-21.875-3.2812c-2.7734-0.42969-5.6055 0.17969-7.9609 1.707l-18.551 11.855c-0.91797 0.58984-2.0977 0.58984-3.0195 0l-18.551-11.855h0.003906c-1.8047-1.1602-3.8945-1.7969-6.0391-1.8359-0.56641-0.046874-1.1367-0.046874-1.707 0l-21.875 3.2812c-1.0781 0.15234-2.1484-0.32422-2.7539-1.2266l-12.031-18.375c-1.5391-2.332-3.8711-4.0234-6.5625-4.7695l-21.219-5.8633c-1.0469-0.28906-1.832-1.1602-2.0156-2.2305l-3.5859-21.875c-0.45312-2.7656-1.8984-5.2695-4.0703-7.043l-17.02-13.957h0.003906c-0.84766-0.69922-1.207-1.8281-0.92187-2.8867l5.5547-21.305h0.003906c0.57422-2.5508 0.26562-5.2188-0.875-7.5703l-9.8438-19.688c-0.5-0.98047-0.37891-2.1602 0.30469-3.0195l13.738-17.195v0.003906c1.7422-2.1953 2.6289-4.9453 2.4922-7.7461l-1.0078-21.875h0.003906c-0.046875-1.0859 0.53125-2.1055 1.4883-2.625z"/>
  <path d="m332.94 294.61c1.707 1.6953 4.4609 1.6953 6.168 0l63.09-63.043c1.4844-1.7383 1.3867-4.3242-0.23047-5.9414-1.6172-1.6172-4.2031-1.7148-5.9414-0.23047l-60.023 59.938-32.023-32.023c-1.7383-1.4883-4.3242-1.3867-5.9414 0.23047-1.6172 1.6133-1.7148 4.2031-0.23047 5.9375z"/>
  <path d="m110.82 147.74c1.7031 1.6992 4.4609 1.6992 6.168 0l10.895-10.895v0.003906c1.4844-1.7383 1.3867-4.3242-0.23047-5.9414-1.6172-1.6172-4.2031-1.7148-5.9414-0.23047l-7.6562 7.6562c-9.7461-11.059-15.535-25.051-16.449-39.766h10.895c2.418 0 4.375-1.9609 4.375-4.375 0-2.418-1.957-4.375-4.375-4.375h-10.805c0.9375-14.676 6.707-28.629 16.406-39.684l7.5703 7.5703h-0.003906c0.82812 0.81641 1.9453 1.2734 3.1055 1.2695 1.7773 0.007813 3.3867-1.0586 4.0664-2.6992 0.68359-1.6406 0.30469-3.5312-0.95703-4.7852l-7.6133-7.6133v0.003906c11.102-9.6953 25.102-15.434 39.812-16.32v10.805c0 2.418 1.957 4.375 4.375 4.375 2.4141 0 4.375-1.957 4.375-4.375v-10.805c14.699 0.95703 28.672 6.7539 39.723 16.492l-7.6133 7.6133h0.003906c-0.92578 0.79297-1.4805 1.9375-1.5273 3.1562-0.046875 1.2148 0.41406 2.3984 1.2773 3.2617 0.86328 0.86328 2.0469 1.3242 3.2617 1.2773 1.2188-0.046875 2.3633-0.60156 3.1562-1.5273l7.6133-7.6133v0.003906c9.7383 11.051 15.535 25.023 16.492 39.723h-10.805c-2.418 0-4.375 1.9609-4.375 4.375 0 2.418 1.957 4.375 4.375 4.375h10.805c-0.17578 3.0273-0.55469 6.0391-1.1367 9.0117l-10.59-2.7109c-2.332-0.64062-4.7383 0.73047-5.3789 3.0625s0.73047 4.7422 3.0625 5.3828l10.543 2.8867c-1 3-2.2148 5.9219-3.6328 8.75l-9.4492-5.6016c-1-0.72656-2.2617-0.99609-3.4727-0.74219-1.2148 0.25391-2.2617 1.0117-2.8828 2.082-0.62109 1.0703-0.76172 2.3555-0.38281 3.5312 0.375 1.1797 1.2344 2.1445 2.3633 2.6562l9.4062 5.6016v-0.003906c-1.5078 2.1797-3.1445 4.2695-4.8984 6.2578l-7.7461-8.0508c-1.7344-1.4883-4.3203-1.3867-5.9375 0.23047-1.6172 1.6133-1.7148 4.2031-0.23047 5.9375l10.895 10.895c1.8359 1.668 4.6406 1.668 6.4766 0 14.117-14.176 22.039-33.367 22.039-53.375s-7.9219-39.199-22.039-53.375c-14.07-14.266-33.23-22.355-53.266-22.496-20.035-0.13672-39.305 7.6875-53.574 21.754-0.21484 0.11328-0.41797 0.24609-0.61328 0.39063-0.16406 0.20703-0.30859 0.42578-0.4375 0.65625-13.906 14.188-21.676 33.277-21.629 53.145 0.050781 19.871 7.9141 38.922 21.895 53.039z"/>
  <path d="m198.1 106.05-21.219-14.176c-0.9375-5.082-4.8438-9.1016-9.8984-10.18-5.0547-1.0781-10.262 0.99219-13.191 5.25-2.9297 4.2578-3.0039 9.8594-0.19141 14.195s7.9609 6.5508 13.043 5.6094c1.0586-0.20312 2.0898-0.54297 3.0625-1.0078l24.629 8.0078c2.0977 0.71484 4.3984-0.25 5.3594-2.2461 0.95703-1.9961 0.27344-4.3945-1.5938-5.5859zm-37.711-10.98h-0.003906c-0.39844-2.1875 1.0508-4.2852 3.2383-4.6836h0.74219c1.5664-0.007813 3 0.89062 3.668 2.3047 0.66797 1.418 0.45312 3.0938-0.54688 4.2969-1.0039 1.2031-2.6133 1.7148-4.1289 1.3125-1.5117-0.40234-2.6562-1.6445-2.9297-3.1875z"/>
  <path d="m164.32 188.7c25.016 0 49.004-9.9375 66.695-27.625 17.688-17.684 27.625-41.672 27.629-66.688 0.003906-25.012-9.9258-49.004-27.609-66.695-17.684-17.691-41.672-27.637-66.684-27.645-25.016-0.0078126-49.008 9.9219-66.703 27.602-17.695 17.68-27.641 41.668-27.652 66.68 0.023438 25.016 9.9688 48.996 27.648 66.688 17.684 17.691 41.664 27.648 66.676 27.684zm0-179.95c22.695 0 44.465 9.0156 60.512 25.062 16.047 16.051 25.062 37.816 25.062 60.512 0 22.695-9.0156 44.465-25.062 60.512-16.047 16.047-37.816 25.062-60.512 25.062-22.695 0-44.461-9.0156-60.512-25.062-16.047-16.047-25.062-37.816-25.062-60.512 0.035156-22.684 9.0625-44.43 25.102-60.473 16.043-16.039 37.789-25.066 60.473-25.102z"/>
  <path d="m627.38 383.99c-5.1641-5.1641-19.555-1.9688-31.148 1.8359v0.003906c-0.35156 0.066407-0.69141 0.18359-1.0078 0.34766-4.1562 1.3984-7.918 2.8438-10.633 3.9375-20.836 8.0898-39.934 20.09-56.262 35.352l-2.3633 2.4492c-17.062-2.625-24.762 0-47.164 22.312h0.003906c-5.9727 5.8711-10.875 12.742-14.48 20.301-0.55469 1.2969-0.45312 2.7773 0.27734 3.9844 0.72656 1.2031 1.9922 1.9844 3.3945 2.0977l27.301 2.3203v-0.003906c-0.78906 3.1016-1.3008 6.2617-1.5312 9.4531-0.078125 1.25 0.38281 2.4766 1.2695 3.3672l9.2305 9.2305-3.5859 3.5859v0.003906c-0.92578 0.79297-1.4805 1.9336-1.5273 3.1523-0.046876 1.2188 0.41797 2.4023 1.2773 3.2617 0.86328 0.86328 2.0469 1.3242 3.2656 1.2773 1.2148-0.046875 2.3594-0.59766 3.1523-1.5234l3.5859-3.5859 9.2305 9.2305h0.003906c0.82422 0.81641 1.9414 1.2734 3.1055 1.2656h0.26172c3.1875-0.23047 6.3516-0.74219 9.4492-1.5312l2.3203 27.301c0.10938 1.4062 0.89062 2.668 2.0977 3.3984 1.207 0.72656 2.6875 0.83203 3.9844 0.27734 7.5586-3.6055 14.426-8.5078 20.297-14.48 22.398-22.398 24.895-30.055 22.312-47.164l2.4492-2.3633h0.003906c15.168-16.383 27.047-35.527 35-56.391 1.0508-2.668 2.4492-6.2578 3.8047-10.238 0.21484-0.41406 0.36328-0.85547 0.4375-1.3125 3.9805-11.637 7.2188-26.074 2.1875-31.152zm-6.125 6.2578c0.45703 4.5664-0.082031 9.1797-1.5742 13.52-1.6641-1.9688-3.5859-4.0703-5.6875-6.168-2.1016-2.1016-4.375-4.375-6.3008-5.8633 4.3477-1.5195 8.9883-2.0273 13.562-1.4883zm-145.95 78.18c2.7969-4.332 6.0352-8.3672 9.668-12.031 17.5-17.5 23.977-21.219 33.863-20.562-8.8125 10.27-15.879 21.918-20.914 34.477zm79.711 57.969c-3.6641 3.6328-7.6953 6.875-12.031 9.6719l-1.9258-22.617v-0.003906c12.562-5.0352 24.207-12.098 34.477-20.91 0.65625 9.8867-2.8867 16.188-20.562 33.859zm24.719-49.523c-18.023 18.023-38.98 30.055-55.301 31.852l-7.7891-7.7891 39.594-39.594h0.003906c1.4844-1.7344 1.3867-4.3242-0.23047-5.9375-1.6172-1.6172-4.2031-1.7188-5.9375-0.23047l-39.594 39.594-7.7891-7.7891c1.793-16.32 13.824-37.32 31.852-55.301 18.023-17.98 43.398-30.23 62.52-36.793h-0.003906c3.875 2.4922 7.4414 5.4297 10.633 8.75 3.3008 3.1289 6.2344 6.625 8.75 10.414-6.6055 19.336-19.383 45.324-36.707 62.824z"/>
  <path d="m493.72 517.65c-1.707-1.6953-4.4609-1.6953-6.168 0l-35 35c-0.92578 0.79297-1.4805 1.9375-1.5273 3.1562-0.046876 1.2188 0.41797 2.3984 1.2773 3.2617 0.86328 0.86328 2.0469 1.3242 3.2656 1.2773 1.2148-0.046875 2.3594-0.59766 3.1523-1.5234l35-35c1.6953-1.707 1.6953-4.4648 0-6.1719z"/>
  <path d="m459.38 521.5c1.707 1.6953 4.4609 1.6953 6.168 0l19.602-19.602c1.4844-1.7344 1.3867-4.3203-0.23047-5.9375-1.6172-1.6172-4.2031-1.7148-5.9375-0.23047l-19.602 19.602c-1.6953 1.707-1.6953 4.4609 0 6.168z"/>
  <path d="m509.47 526.01-19.469 19.598c-0.92578 0.79297-1.4805 1.9375-1.5273 3.1562-0.046875 1.2148 0.41797 2.3984 1.2812 3.2617 0.85938 0.86328 2.043 1.3242 3.2617 1.2773s2.3594-0.60156 3.1523-1.5273l19.602-19.602v0.003906c1.4844-1.7383 1.3867-4.3242-0.23047-5.9414-1.6172-1.6133-4.2031-1.7148-5.9375-0.22656z"/>
  <path d="m578.86 411.91c-5.4531 0-10.684 2.168-14.539 6.0234-3.8555 3.8555-6.0234 9.0859-6.0234 14.539s2.168 10.684 6.0234 14.539c3.8555 3.8555 9.0859 6.0234 14.539 6.0234s10.684-2.168 14.539-6.0234c3.8594-3.8555 6.0234-9.0859 6.0234-14.539-0.011719-5.4492-2.1797-10.672-6.0352-14.527-3.8516-3.8516-9.0781-6.0234-14.527-6.0352zm0 32.375c-4.7773 0-9.0859-2.8789-10.914-7.293-1.8281-4.4141-0.81641-9.4922 2.5625-12.871 3.3789-3.3789 8.457-4.3906 12.871-2.5625 4.4141 1.8281 7.293 6.1367 7.293 10.914 0.011719 3.1406-1.2266 6.1562-3.4453 8.3828-2.2148 2.2227-5.2266 3.4727-8.3672 3.4727z"/>
  <path d="m427.83 539.83c-12.035 3.5781-24.297 6.3242-36.707 8.2227-71.105 10.906-143.63-6.8828-201.62-49.449-57.988-42.562-96.695-106.42-107.61-177.52-2.1797-14.246-3.2344-28.641-3.1484-43.051 0-1.1602-0.46094-2.2734-1.2812-3.0938s-1.9336-1.2812-3.0938-1.2812c-2.418 0-4.375 1.957-4.375 4.375-0.070312 14.852 1.0273 29.684 3.2812 44.363 10.113 66.035 43.508 126.28 94.148 169.85 50.641 43.574 115.2 67.605 182 67.754 27.391-0.007812 54.637-3.9688 80.895-11.77 2.3203-0.6875 3.6406-3.125 2.9531-5.4453-0.6875-2.3203-3.125-3.6406-5.4453-2.9531z"/>
  <path d="m77.395 215.82c-1.707 7.2617-3.1484 14.656-4.375 21.875-0.17578 1.1484 0.11328 2.3203 0.80078 3.2539 0.69141 0.9375 1.7227 1.5586 2.875 1.7305h0.65625c2.1797 0.027343 4.0469-1.5586 4.375-3.7188 1.0938-7.0859 2.4492-14.262 4.1133-21.305h-0.003906c0.55859-2.3555-0.90234-4.7148-3.2578-5.2734-2.3555-0.55469-4.7148 0.90625-5.2734 3.2617z"/>
  <path d="m134.88 377.74c-1.0039-2.1992-3.6016-3.168-5.7969-2.168-2.1992 1.0039-3.1719 3.6016-2.168 5.7969 3.1484 6.957 6.6953 13.867 10.5 20.52 0.55469 1.0586 1.5117 1.8438 2.6602 2.1758 1.1445 0.33203 2.375 0.17969 3.4062-0.41406 1.0312-0.59766 1.7773-1.5898 2.0586-2.7461 0.28516-1.1602 0.085937-2.3828-0.55469-3.3906-3.6328-6.4297-7.043-13.082-10.105-19.773z"/>
  <path d="m350.44 525c12.305 0.003906 24.59-0.93359 36.75-2.8008 14.715-2.2461 29.195-5.8203 43.27-10.676 2.1953-0.84375 3.3281-3.2773 2.5625-5.5039-0.76562-2.2266-3.1562-3.4453-5.4062-2.7617-45.773 15.828-95.297 17.234-141.89 4.0273-46.598-13.207-88.02-40.387-118.68-77.879-1.5352-1.8711-4.2969-2.1484-6.1719-0.61328-1.8711 1.5352-2.1445 4.2969-0.60938 6.168 23.09 28.113 52.117 50.766 85 66.332 32.879 15.57 68.801 23.664 105.18 23.707z"/>
  <path d="m266.35 22.094c14.035-4.5469 28.418-7.957 43.004-10.195 47.066-7.2148 95.203-1.9141 139.57 15.371 44.367 17.281 83.402 45.941 113.18 83.094 29.781 37.152 49.258 81.488 56.473 128.55 1.2695 8.3555 2.1875 16.887 2.7109 25.375 0.14062 2.3125 2.0586 4.1172 4.375 4.1133h0.26172c1.1641-0.066406 2.25-0.59375 3.0195-1.4648 0.77344-0.87109 1.168-2.0117 1.0938-3.1719-0.52344-8.75-1.4453-17.5-2.8008-26.25-11.273-73.395-51.242-139.3-111.11-183.23-59.867-43.93-134.73-62.277-208.13-51.008-15.047 2.3008-29.883 5.8125-44.363 10.5-1.1406 0.32812-2.1016 1.1055-2.6602 2.1523-0.55859 1.0508-0.66797 2.2812-0.29687 3.4102 0.36719 1.1328 1.1797 2.0625 2.25 2.582 1.0703 0.51953 2.3047 0.57812 3.4219 0.16797z"/>
  <path d="m625.62 296.67c-2.4023-0.17578-4.4961 1.625-4.6797 4.0273-0.52344 6.6484-1.2695 13.387-2.2734 20.039l-0.003906-0.003906c-0.17578 1.1484 0.11328 2.3203 0.80469 3.2578 0.6875 0.93359 1.7227 1.5586 2.8711 1.7305h0.65625c2.1797 0.023438 4.0469-1.5625 4.375-3.7188 1.0508-6.8242 1.8359-13.781 2.3633-20.695 0.070313-1.1602-0.32422-2.3008-1.0938-3.1719-0.77344-0.87109-1.8594-1.3984-3.0195-1.4648z"/>
  <path d="m558.07 162.66c1.5742 0 3.0234-0.84375 3.8008-2.2109s0.76562-3.043-0.039062-4.3984c-3.9375-6.6953-8.2266-13.125-12.773-19.555-1.4492-1.8438-4.0977-2.2148-6-0.84375-1.9023 1.375-2.3828 4.0039-1.0859 5.9609 4.375 6.082 8.75 12.426 12.336 18.855v0.003906c0.77734 1.3438 2.207 2.1758 3.7617 2.1875z"/>
  <path d="m523.21 116.9c1.7656 0.011718 3.3633-1.0391 4.0547-2.668 0.6875-1.625 0.33203-3.5078-0.90625-4.7695-31.527-32.453-71.418-55.559-115.25-66.762-43.84-11.203-89.926-10.066-133.16 3.2812-2.2383 0.76953-3.4609 3.1719-2.7617 5.4297 0.69531 2.2578 3.0625 3.5547 5.3398 2.9258 41.699-12.867 86.145-13.957 128.43-3.1484 42.277 10.809 80.746 33.098 111.15 64.398 0.81641 0.83594 1.9336 1.3086 3.1055 1.3125z"/>
  <path d="m486.15 116.77c-0.57031-1.8828-1.3984-5.8203-1.9688-9.1016 0-2.4141-1.957-4.375-4.375-4.375-2.4141 0-4.375 1.9609-4.375 4.375-0.57031 3.2383-1.3984 7.1758-1.9688 9.1016-1.5312 0.52344-4.375 1.2695-7.3047 1.8828v-0.003906c-2.418 0-4.375 1.9609-4.375 4.375 0 2.418 1.957 4.375 4.375 4.375 2.4922 0.52344 5.6445 1.3555 7.3047 1.8828 0.57031 1.8828 1.3984 5.8203 1.9688 9.1016 0 2.4141 1.9609 4.375 4.375 4.375 2.418 0 4.375-1.9609 4.375-4.375 0.57031-3.2383 1.3984-7.1758 1.9688-9.1016 1.5312-0.52344 4.375-1.2695 7.3047-1.8828h0.003906c2.4141 0 4.375-1.957 4.375-4.375 0-2.4141-1.9609-4.375-4.375-4.375-2.8008-0.52344-5.7773-1.3555-7.3086-1.8789z"/>
  <path d="m149.67 300.04c0.91797-6.9141 2.3203-15.137 3.1953-18.199v-0.003906c4.5352-1.2617 9.1367-2.2812 13.781-3.0625 2.4141 0 4.375-1.957 4.375-4.375 0-2.4141-1.9609-4.375-4.375-4.375-4.6445-0.77344-9.2461-1.7969-13.781-3.0625-0.875-3.0625-2.2305-11.289-3.1953-18.199 0-2.4141-1.957-4.375-4.375-4.375-2.4141 0-4.375 1.9609-4.375 4.375-0.91797 6.9141-2.3203 15.137-3.1953 18.199h0.003906c-4.5391 1.2656-9.1367 2.2891-13.781 3.0625-2.418 0-4.375 1.9609-4.375 4.375 0 2.418 1.957 4.375 4.375 4.375 4.6445 0.77734 9.2422 1.8008 13.781 3.0625 0.875 3.0625 2.2305 11.289 3.1953 18.199l-0.003906 0.003906c0 2.4141 1.9609 4.375 4.375 4.375 2.418 0 4.375-1.9609 4.375-4.375zm-3.2812-24.414c-0.44141 0.42188-0.80078 0.92578-1.0508 1.4883-0.22266-0.55469-0.54688-1.0586-0.96094-1.4883-0.41406-0.43359-0.90234-0.78906-1.4453-1.0508 0.54687-0.28906 1.0352-0.67188 1.4453-1.1367 0.44531-0.42188 0.80078-0.92578 1.0508-1.4883 0.24609 0.5625 0.60156 1.0664 1.0508 1.4883 0.41406 0.42969 0.90234 0.78516 1.4414 1.0508-0.57812 0.27734-1.0977 0.66406-1.5312 1.1367z"/>
  <path d="m504.48 363.74c3.7305 0.75781 7.4102 1.7383 11.027 2.9297 1.2539 4.4336 2.2617 8.9336 3.0156 13.477 0 2.4141 1.9609 4.375 4.375 4.375 2.418 0 4.375-1.9609 4.375-4.375 0.76172-4.543 1.7695-9.043 3.0195-13.477 3.6133-1.1914 7.2969-2.1719 11.027-2.9297 2.4141 0 4.375-1.9609 4.375-4.375 0-2.418-1.9609-4.375-4.375-4.375-3.7305-0.76172-7.4141-1.7383-11.027-2.9336-1.2539-4.4453-2.2617-8.957-3.0195-13.516 0-2.418-1.957-4.375-4.375-4.375-2.4141 0-4.375 1.957-4.375 4.375-0.75391 4.5586-1.7617 9.0703-3.0156 13.516-3.6172 1.1953-7.2969 2.1758-11.027 2.9336-2.4141 0-4.375 1.957-4.375 4.375 0 2.4141 1.9609 4.375 4.375 4.375zm17.5-5.207c0.37109-0.35547 0.67969-0.76953 0.91797-1.2266 0.23828 0.45703 0.55078 0.87109 0.92187 1.2266 0.35938 0.36328 0.77344 0.67578 1.2227 0.91797-0.44922 0.24609-0.86328 0.55469-1.2227 0.91797-0.37109 0.35937-0.68359 0.76953-0.92187 1.2266-0.23828-0.45312-0.54688-0.86719-0.91797-1.2266-0.35938-0.36328-0.77344-0.67188-1.2227-0.91797 0.40234-0.25391 0.77344-0.5625 1.0938-0.91797z"/>
 </g>
</svg>
