<?xml version="1.0" encoding="UTF-8"?>
<svg width="700pt" height="700pt" version="1.1" viewBox="0 0 700 700" xmlns="http://www.w3.org/2000/svg" xmlns:xlink="http://www.w3.org/1999/xlink">
 <defs>
  <symbol id="f" overflow="visible">
   <path d="m28.422-1.7031c-1.4688 0.76172-3 1.3359-4.5938 1.7188-1.5859 0.38281-3.2344 0.57812-4.9531 0.57812-5.1562 0-9.2422-1.4375-12.25-4.3125-3.0117-2.875-4.5156-6.7812-4.5156-11.719s1.5039-8.8438 4.5156-11.719c3.0078-2.8828 7.0938-4.3281 12.25-4.3281 1.7188 0 3.3672 0.19531 4.9531 0.57812 1.5938 0.38672 3.125 0.96094 4.5938 1.7188v6.4062c-1.4805-1.0078-2.9375-1.75-4.375-2.2188s-2.9492-0.70312-4.5312-0.70312c-2.8438 0-5.0859 0.91406-6.7188 2.7344-1.625 1.8242-2.4375 4.3359-2.4375 7.5312 0 3.1992 0.8125 5.7109 2.4375 7.5312 1.6328 1.8242 3.875 2.7344 6.7188 2.7344 1.582 0 3.0938-0.23438 4.5312-0.70312 1.4375-0.47656 2.8945-1.2188 4.375-2.2188z"/>
  </symbol>
  <symbol id="d" overflow="visible">
   <path d="m20.797-16.875c-0.64844-0.3125-1.293-0.53516-1.9375-0.67188-0.64844-0.14453-1.293-0.21875-1.9375-0.21875-1.9062 0-3.375 0.60938-4.4062 1.8281-1.0234 1.2188-1.5312 2.9688-1.5312 5.25v10.688h-7.4219v-23.203h7.4219v3.8125c0.94531-1.5195 2.0352-2.6289 3.2656-3.3281 1.2383-0.69531 2.7227-1.0469 4.4531-1.0469 0.25 0 0.51953 0.011719 0.8125 0.03125 0.28906 0.023437 0.71094 0.070313 1.2656 0.14062z"/>
  </symbol>
  <symbol id="b" overflow="visible">
   <path d="m26.719-11.656v2.1094h-17.328c0.17578 1.7422 0.80078 3.0469 1.875 3.9219 1.082 0.86719 2.5859 1.2969 4.5156 1.2969 1.5625 0 3.1602-0.22656 4.7969-0.6875 1.6328-0.46875 3.3164-1.1719 5.0469-2.1094v5.7188c-1.75 0.65625-3.5078 1.1523-5.2656 1.4844-1.75 0.34375-3.5078 0.51562-5.2656 0.51562-4.1992 0-7.4609-1.0625-9.7812-3.1875-2.3242-2.1328-3.4844-5.1289-3.4844-8.9844 0-3.7812 1.1406-6.7539 3.4219-8.9219 2.2812-2.1758 5.4258-3.2656 9.4375-3.2656 3.6445 0 6.5625 1.1016 8.75 3.2969 2.1875 2.1992 3.2812 5.1367 3.2812 8.8125zm-7.625-2.4688c0-1.4062-0.41406-2.5391-1.2344-3.4062-0.8125-0.86328-1.8867-1.2969-3.2188-1.2969-1.4375 0-2.6055 0.40625-3.5 1.2188-0.89844 0.80469-1.4531 1.9648-1.6719 3.4844z"/>
  </symbol>
  <symbol id="c" overflow="visible">
   <path d="m13.969-10.438c-1.5547 0-2.7188 0.26562-3.5 0.79688-0.78125 0.52344-1.1719 1.293-1.1719 2.3125 0 0.9375 0.3125 1.6719 0.9375 2.2031 0.63281 0.53125 1.5078 0.79688 2.625 0.79688 1.3945 0 2.5664-0.5 3.5156-1.5 0.95703-1 1.4375-2.2539 1.4375-3.7656v-0.84375zm11.328-2.7969v13.234h-7.4844v-3.4375c-0.99219 1.4062-2.1094 2.4336-3.3594 3.0781-1.2422 0.63281-2.75 0.95312-4.5312 0.95312-2.4062 0-4.3594-0.69531-5.8594-2.0938-1.4922-1.4062-2.2344-3.2227-2.2344-5.4531 0-2.7266 0.92969-4.7266 2.7969-6 1.875-1.2695 4.8125-1.9062 8.8125-1.9062h4.375v-0.57812c0-1.1641-0.46484-2.0195-1.3906-2.5625-0.92969-0.55078-2.3711-0.82812-4.3281-0.82812-1.5859 0-3.0625 0.16406-4.4375 0.48438-1.3672 0.3125-2.6328 0.78906-3.7969 1.4219v-5.6562c1.582-0.38281 3.1758-0.67578 4.7812-0.875 1.6016-0.20703 3.2031-0.3125 4.7969-0.3125 4.1875 0 7.207 0.82812 9.0625 2.4844 1.8633 1.6484 2.7969 4.3281 2.7969 8.0469z"/>
  </symbol>
  <symbol id="a" overflow="visible">
   <path d="m11.656-29.781v6.5781h7.6562v5.3125h-7.6562v9.8281c0 1.0859 0.21094 1.8203 0.64062 2.2031 0.4375 0.375 1.2891 0.5625 2.5625 0.5625h3.7969v5.2969h-6.3594c-2.9297 0-5-0.60938-6.2188-1.8281-1.2188-1.2266-1.8281-3.3047-1.8281-6.2344v-9.8281h-3.6875v-5.3125h3.6875v-6.5781z"/>
  </symbol>
  <symbol id="j" overflow="visible">
   <path d="m19.344-19.797v-12.438h7.4531v32.234h-7.4531v-3.3594c-1.0234 1.3672-2.1484 2.3672-3.375 3-1.2305 0.63281-2.6523 0.95312-4.2656 0.95312-2.8555 0-5.2031-1.1328-7.0469-3.4062-1.8359-2.2695-2.75-5.1914-2.75-8.7656 0-3.5703 0.91406-6.4922 2.75-8.7656 1.8438-2.2812 4.1914-3.4219 7.0469-3.4219 1.6016 0 3.0195 0.32422 4.25 0.96875 1.2383 0.64844 2.3672 1.6484 3.3906 3zm-4.8906 15.016c1.5938 0 2.8047-0.57812 3.6406-1.7344 0.83203-1.1641 1.25-2.8516 1.25-5.0625 0-2.207-0.41797-3.8906-1.25-5.0469-0.83594-1.1641-2.0469-1.75-3.6406-1.75-1.5742 0-2.7773 0.58594-3.6094 1.75-0.83594 1.1562-1.25 2.8398-1.25 5.0469 0 2.2109 0.41406 3.8984 1.25 5.0625 0.83203 1.1562 2.0352 1.7344 3.6094 1.7344z"/>
  </symbol>
  <symbol id="i" overflow="visible">
   <path d="m15.906-4.7812c1.5938 0 2.8047-0.57812 3.6406-1.7344 0.83203-1.1641 1.25-2.8516 1.25-5.0625 0-2.207-0.41797-3.8906-1.25-5.0469-0.83594-1.1641-2.0469-1.75-3.6406-1.75-1.5859 0-2.8047 0.58594-3.6562 1.75-0.84375 1.168-1.2656 2.8516-1.2656 5.0469 0 2.1992 0.42188 3.8828 1.2656 5.0469 0.85156 1.168 2.0703 1.75 3.6562 1.75zm-4.9219-15.016c1.0195-1.3516 2.1484-2.3516 3.3906-3 1.2383-0.64453 2.6641-0.96875 4.2812-0.96875 2.8633 0 5.2109 1.1406 7.0469 3.4219 1.832 2.2734 2.75 5.1953 2.75 8.7656 0 3.5742-0.91797 6.4961-2.75 8.7656-1.8359 2.2734-4.1836 3.4062-7.0469 3.4062-1.6172 0-3.043-0.32031-4.2812-0.95312-1.2422-0.64453-2.3711-1.6445-3.3906-3v3.3594h-7.4219v-32.234h7.4219z"/>
  </symbol>
  <symbol id="h" overflow="visible">
   <path d="m0.51562-23.203h7.4219l6.2344 15.75 5.2969-15.75h7.4219l-9.7656 25.406c-0.98047 2.5703-2.1211 4.375-3.4219 5.4062-1.3047 1.0312-3.0273 1.5469-5.1719 1.5469h-4.2812v-4.875h2.3125c1.2578 0 2.1758-0.19922 2.75-0.59375 0.57031-0.39844 1.0156-1.1172 1.3281-2.1562l0.21875-0.64062z"/>
  </symbol>
  <symbol id="g" overflow="visible">
   <path d="m3.5625-23.203h7.4219v23.203h-7.4219zm0-9.0312h7.4219v6.0469h-7.4219z"/>
  </symbol>
  <symbol id="q" overflow="visible">
   <path d="m0.64062-23.203h7.4219l5.7812 16.031 5.75-16.031h7.4375l-9.1406 23.203h-8.1406z"/>
  </symbol>
  <symbol id="p" overflow="visible">
   <path d="m25.422-29.953v6.5469c-1.6992-0.75781-3.3594-1.332-4.9844-1.7188-1.6172-0.38281-3.1406-0.57812-4.5781-0.57812-1.8984 0-3.3047 0.26562-4.2188 0.79688-0.90625 0.52344-1.3594 1.3359-1.3594 2.4375 0 0.82422 0.30469 1.4688 0.92188 1.9375 0.61328 0.46094 1.7266 0.85547 3.3438 1.1875l3.3906 0.6875c3.4375 0.6875 5.8789 1.7344 7.3281 3.1406 1.457 1.4062 2.1875 3.4141 2.1875 6.0156 0 3.4062-1.0156 5.9453-3.0469 7.6094-2.0234 1.6562-5.1094 2.4844-9.2656 2.4844-1.9609 0-3.9297-0.1875-5.9062-0.5625-1.9688-0.36328-3.9453-0.91016-5.9219-1.6406v-6.7344c1.9766 1.0547 3.8906 1.8438 5.7344 2.375s3.6172 0.79688 5.3281 0.79688c1.7383 0 3.0703-0.28906 4-0.875 0.92578-0.58203 1.3906-1.4102 1.3906-2.4844 0-0.96875-0.32031-1.7109-0.95312-2.2344-0.625-0.53125-1.875-1.0039-3.75-1.4219l-3.0938-0.67188c-3.0938-0.66406-5.3555-1.7227-6.7812-3.1719-1.4297-1.4453-2.1406-3.3984-2.1406-5.8594 0-3.082 0.99219-5.4531 2.9844-7.1094 1.9883-1.6562 4.8477-2.4844 8.5781-2.4844 1.6953 0 3.4414 0.13281 5.2344 0.39062 1.7891 0.25 3.6484 0.63281 5.5781 1.1406z"/>
  </symbol>
  <symbol id="e" overflow="visible">
   <path d="m3.5625-32.234h7.4219v32.234h-7.4219z"/>
  </symbol>
  <symbol id="o" overflow="visible">
   <path d="m18.828-32.234v4.875h-4.0938c-1.0547 0-1.7891 0.19531-2.2031 0.57812-0.41797 0.375-0.625 1.0312-0.625 1.9688v1.6094h6.3438v5.3125h-6.3438v17.891h-7.4062v-17.891h-3.6875v-5.3125h3.6875v-1.6094c0-2.5312 0.70312-4.3984 2.1094-5.6094 1.4062-1.207 3.5859-1.8125 6.5469-1.8125z"/>
  </symbol>
  <symbol id="n" overflow="visible">
   <path d="m26.891-14.125v14.125h-7.4688v-10.766c0-2.0312-0.046875-3.4258-0.14062-4.1875-0.085938-0.75781-0.23438-1.3203-0.45312-1.6875-0.29297-0.47656-0.6875-0.85156-1.1875-1.125-0.49219-0.26953-1.0547-0.40625-1.6875-0.40625-1.5547 0-2.7734 0.60156-3.6562 1.7969-0.875 1.1992-1.3125 2.8555-1.3125 4.9688v11.406h-7.4219v-32.234h7.4219v12.438c1.1133-1.3516 2.2969-2.3516 3.5469-3 1.2578-0.64453 2.6484-0.96875 4.1719-0.96875 2.6758 0 4.707 0.82422 6.0938 2.4688 1.3945 1.6484 2.0938 4.0391 2.0938 7.1719z"/>
  </symbol>
  <symbol id="m" overflow="visible">
   <path d="m3.8906-30.922h8.9062l11.25 21.203v-21.203h7.5625v30.922h-8.9062l-11.25-21.219v21.219h-7.5625z"/>
  </symbol>
  <symbol id="l" overflow="visible">
   <path d="m3.8906-30.922h13.234c3.9375 0 6.957 0.875 9.0625 2.625 2.1016 1.7422 3.1562 4.2266 3.1562 7.4531 0 3.25-1.0547 5.75-3.1562 7.5-2.1055 1.7422-5.125 2.6094-9.0625 2.6094h-5.25v10.734h-7.9844zm7.9844 5.7812v8.625h4.4062c1.5391 0 2.7344-0.375 3.5781-1.125s1.2656-1.8164 1.2656-3.2031c0-1.375-0.42188-2.4297-1.2656-3.1719-0.84375-0.75-2.0391-1.125-3.5781-1.125z"/>
  </symbol>
  <symbol id="k" overflow="visible">
   <path d="m3.5625-23.203h7.4219v22.781c0 3.1133-0.75 5.4883-2.25 7.125-1.4922 1.6328-3.6523 2.4531-6.4844 2.4531h-3.6562v-4.875h1.2812c1.4062 0 2.3672-0.32031 2.8906-0.95312 0.53125-0.63672 0.79688-1.8867 0.79688-3.75zm0-9.0312h7.4219v6.0469h-7.4219z"/>
  </symbol>
 </defs>
 <g>
  <path d="m431.45 382.67c1.6953-4.2422 3.3945-7.6367 5.9375-11.031 1.6953-3.3945 0.84766-6.7891-2.5469-8.4844-3.3945-1.6953-6.7891-0.84766-8.4844 2.5469-2.5469 4.2422-4.2422 8.4844-5.9375 12.727-1.6953 3.3945 0 6.7891 3.3945 8.4844 2.5469 0 5.9414-0.84766 7.6367-4.2422z" fill="#000100"/>
  <path d="m444.18 360.61c2.5469-3.3945 5.0898-6.7891 7.6367-10.184 2.5469-2.5469 1.6953-6.7891-0.84766-9.332-2.5469-2.5469-6.7891-1.6953-9.332 0.84766-3.3945 3.3945-5.9375 7.6367-8.4844 11.031-1.6953 2.5469-1.6953 6.7891 1.6953 8.4844 3.3906 2.5469 6.7852 1.6992 9.332-0.84766z" fill="#000100"/>
  <path d="m422.97 386.06c-3.3945-0.84766-6.7891 0.84766-8.4844 4.2422-1.6953 4.2422-2.5469 8.4844-4.2422 13.574-0.84766 3.3945 1.6953 6.7891 5.0898 7.6367s6.7891-1.6953 7.6367-5.0898c0.84766-4.2422 2.5469-8.4844 3.3945-11.879 1.6992-3.3945 0-6.7891-3.3945-8.4844z" fill="#000100"/>
  <path d="m513.76 256.24c-3.3945-1.6953-6.7891 0-8.4844 3.3945-1.6953 4.2422-3.3945 7.6367-5.0898 11.879-1.6953 3.3945 0 6.7891 2.5469 8.4844 3.3945 1.6953 6.7891 0 8.4844-2.5469 1.6953-4.2422 4.2422-8.4844 5.9375-12.727 1.6953-3.3945 0-6.7891-3.3945-8.4844z" fill="#000100"/>
  <path d="m478.97 303.76c-2.5469 3.3945-5.9375 6.7891-8.4844 9.332-2.5469 2.5469-2.5469 6.7891 0 9.332 2.5469 2.5469 6.7891 2.5469 9.332 0 3.3945-3.3945 5.9375-6.7891 9.332-10.184 2.5469-2.5469 1.6953-6.7891-0.84766-9.332-2.543-1.6953-6.7852-1.6953-9.332 0.85156z" fill="#000100"/>
  <path d="m461.15 322.43c-4.2422 3.3945-5.9375 5.0898-10.184 9.332-2.5469 2.5469-2.5469 6.7891 0 9.332 2.5469 2.5469 6.7891 2.5469 9.332 0 3.3945-3.3945 5.9375-5.0898 9.332-8.4844 2.5469-2.5469 2.5469-6.7891 0.84766-9.332-2.543-2.5469-5.9336-3.3945-9.3281-0.84766z" fill="#000100"/>
  <path d="m520.55 230.79c-3.3945-0.84766-6.7891 1.6953-7.6367 5.0898-0.84766 4.2422-1.6953 8.4844-3.3945 12.727-0.84766 3.3945 0.84766 6.7891 4.2422 7.6367 3.3945 0.84766 6.7891-0.84766 7.6367-4.2422 1.6953-4.2422 2.5469-8.4844 3.3945-13.574 1.6953-3.3945-0.85156-6.7891-4.2422-7.6367z" fill="#000100"/>
  <path d="m502.73 280.85c-3.3945-1.6953-6.7891-0.84766-8.4844 2.5469-2.5469 3.3945-4.2422 7.6367-6.7891 11.031-1.6953 2.5469-1.6953 6.7891 1.6953 8.4844 2.5469 1.6953 6.7891 1.6953 8.4844-1.6953 2.5469-3.3945 5.0898-7.6367 7.6367-11.879 1.6992-2.5469 0.85156-6.7891-2.543-8.4883z" fill="#000100"/>
  <path d="m199.82 271.52c-1.6953-4.2422-3.3945-7.6367-5.0898-11.879-1.6953-3.3945-5.0898-5.0898-8.4844-3.3945-3.3945 1.6953-5.0898 5.0898-3.3945 8.4844 1.6953 4.2422 3.3945 8.4844 5.9375 12.727 1.6953 3.3945 5.0898 4.2422 8.4844 2.5469 2.5469-0.84766 4.2461-5.0898 2.5469-8.4844z" fill="#000100"/>
  <path d="m229.52 313.94c-3.3945-3.3945-5.9375-5.9375-8.4844-9.332-2.5469-2.5469-5.9375-3.3945-9.332-0.84766-2.5469 2.5469-3.3945 5.9375-0.84766 9.332 2.5469 3.3945 5.9375 6.7891 9.332 10.184 2.5469 2.5469 6.7891 2.5469 9.332 0 2.5469-2.5469 2.5469-6.7891 0-9.3359z" fill="#000100"/>
  <path d="m186.24 256.24c3.3945-0.84766 5.0898-4.2422 4.2422-7.6367-1.6953-4.2422-2.5469-8.4844-3.3945-12.727-0.84766-3.3945-4.2422-5.9375-7.6367-5.0898-3.3945 0.84766-5.9375 4.2422-5.0898 7.6367 0.84766 4.2422 2.5469 9.332 3.3945 13.574 1.6953 3.3945 5.0898 5.0898 8.4844 4.2422z" fill="#000100"/>
  <path d="m213.39 293.57c-2.5469-3.3945-5.0898-6.7891-6.7891-11.031-1.6953-3.3945-5.9375-4.2422-8.4844-2.5469-3.3945 1.6953-4.2422 5.9375-2.5469 8.4844 2.5469 4.2422 5.0898 7.6367 7.6367 11.879 1.6953 2.5469 5.9375 3.3945 8.4844 1.6953 2.5469-0.84375 3.3945-5.0859 1.6992-8.4805z" fill="#000100"/>
  <path d="m249.03 341.09c2.5469-2.5469 2.5469-6.7891 0-9.332-5.0898-5.0898-5.9375-5.0898-10.184-9.332-2.5469-2.5469-6.7891-1.6953-9.332 0.84766-2.5469 2.5469-1.6953 6.7891 0.84766 9.332 4.2422 3.3945 5.0898 4.2422 9.332 8.4844 2.5469 2.5469 6.7891 2.5469 9.3359 0z" fill="#000100"/>
  <path d="m277.03 406.43c0.84766 3.3945 4.2422 5.9375 7.6367 5.0898s5.9375-4.2422 5.0898-7.6367c-0.84766-4.2422-2.5469-9.332-3.3945-13.574-0.84766-3.3945-5.0898-5.0898-7.6367-4.2422-3.3945 0.84766-5.0898 5.0898-4.2422 7.6367 0 4.2383 1.6992 8.4844 2.5469 12.727z" fill="#000100"/>
  <path d="m266.85 352.97c-2.5469-3.3945-5.9375-7.6367-8.4844-11.031-2.5469-2.5469-5.9375-3.3945-9.332-0.84766-2.5469 2.5469-3.3945 5.9375-0.84766 9.332s5.0898 6.7891 7.6367 10.184c1.6953 2.5469 5.9375 3.3945 8.4844 1.6953 4.2422-2.543 4.2422-6.7852 2.543-9.332z" fill="#000100"/>
  <path d="m268.55 382.67c1.6953 3.3945 5.0898 4.2422 8.4844 3.3945 3.3945-1.6953 4.2422-5.0898 3.3945-8.4844-1.6953-4.2422-4.2422-8.4844-5.9375-12.727-1.6953-3.3945-5.9375-4.2422-8.4844-2.5469-3.3945 1.6953-4.2422 5.9375-2.5469 8.4844 1.6953 4.2422 3.3906 7.6367 5.0898 11.879z" fill="#000100"/>
  <path d="m459.45 445.45c0-15.273-11.879-27.152-27.152-27.152h-11.031c0-3.3945-2.5469-5.9375-5.0898-5.9375-3.3945-0.84766-6.7891 1.6953-6.7891 5.0898v0.84766l-117.94 0.003907c-0.84766-4.2422-3.3945-6.7891-7.6367-5.9375-3.3945 0-5.0898 3.3945-5.0898 5.9375h-11.031c-15.273 0-27.152 11.879-27.152 27.152 0 8.4844 4.2422 16.121 10.184 21.211-5.9375 5.0898-10.184 12.727-10.184 21.211 0 15.273 11.879 27.152 27.152 27.152h17.816v35.637c0 3.3945 2.5469 6.7891 6.7891 6.7891h116.24c3.3945 0 6.7891-2.5469 6.7891-6.7891v-35.637h17.816c15.273 0 27.152-11.879 27.152-27.152 0-8.4844-4.2422-16.121-10.184-21.211 5.0938-5.0938 9.3359-12.73 9.3359-21.215zm-57.695 98.426h-103.52v-28.848h103.52zm44.969-56.848c0 7.6367-6.7891 14.426-14.426 14.426h-164.61c-7.6367 0-14.426-6.7891-14.426-14.426s6.7891-14.426 14.426-14.426h164.61c7.6367 0 14.426 6.7891 14.426 14.426zm-179.03-27.152c-7.6367 0-14.426-6.7891-14.426-14.426s6.7891-14.426 14.426-14.426h164.61c7.6367 0 14.426 6.7891 14.426 14.426s-6.7891 14.426-14.426 14.426z" fill="#000100"/>
  <path d="m221.03 181.57c-3.3945 0.84766-5.0898 3.3945-5.0898 5.9375v27.152c0 3.3945 2.5469 5.9375 5.0898 5.9375l24.605 4.2422c2.5469 11.879 6.7891 22.91 13.574 33.09l-14.426 20.363c-1.6953 2.5469-1.6953 5.9375 0.84766 8.4844l19.516 19.516c2.5469 2.5469 5.9375 2.5469 8.4844 0.84766l20.363-14.426c10.184 5.9375 21.211 11.031 33.09 13.574l4.2422 24.605c0.84766 3.3945 3.3945 5.0898 5.9375 5.0898h27.152c3.3945 0 5.9375-2.5469 5.9375-5.0898l4.2422-24.605c11.879-2.5469 22.91-6.7891 33.09-13.574l20.363 14.426c2.5469 1.6953 5.9375 1.6953 8.4844-0.84766l19.516-19.516c2.5469-2.5469 2.5469-5.9375 0.84766-8.4844l-14.426-20.363c5.9375-10.184 11.031-21.211 13.574-33.09l24.605-4.2422c3.3945-0.84766 5.0898-3.3945 5.0898-5.9375v-27.152c0-3.3945-2.5469-5.9375-5.0898-5.9375l-24.605-4.2422c-2.5469-11.879-6.7891-22.91-13.574-33.09l14.426-20.363c1.6953-2.5469 1.6953-5.9375-0.84766-8.4844l-21.203-18.668c-2.5469-2.5469-5.9375-2.5469-8.4844-0.84766l-20.363 14.426c-10.184-5.9375-21.211-11.031-33.09-13.574l-4.2422-24.605c-0.84766-3.3945-3.3945-5.0898-5.9375-5.0898h-27.152c-3.3945 0-5.9375 2.5469-5.9375 5.0898l-4.2422 24.605c-11.879 2.5469-22.91 6.7891-33.09 13.574l-20.363-14.426c-2.5469-1.6953-5.9375-1.6953-8.4844 0.84766l-19.516 19.516c-2.5469 2.5469-2.5469 5.9375-0.84766 8.4844l14.426 20.363c-5.9375 10.184-11.031 21.211-13.574 33.09zm36.484 2.5469c2.5469-12.727 7.6367-25.453 15.273-36.484 1.6953-2.5469 1.6953-5.0898 0-7.6367l-14.426-19.516 11.879-11.879 19.516 14.426c2.5469 1.6953 5.0898 1.6953 7.6367 0 11.031-7.6367 22.91-12.727 36.484-15.273 2.5469-0.84766 5.0898-2.5469 5.0898-5.0898l2.5469-22.91h16.969l3.3945 23.758c0.84766 2.5469 2.5469 5.0898 5.0898 5.0898 12.727 2.5469 25.453 7.6367 36.484 15.273 2.5469 1.6953 5.0898 1.6953 7.6367 0l19.516-14.426 11.879 11.879-14.426 19.516c-1.6953 2.5469-1.6953 5.0898 0 7.6367 7.6367 11.031 12.727 22.91 15.273 36.484 0.84766 2.5469 2.5469 5.0898 5.0898 5.0898l23.758 3.3945v16.969l-23.758 3.3945c-2.5469 0.84766-5.0898 2.5469-5.0898 5.0898-2.5469 12.727-7.6367 25.453-15.273 36.484-1.6953 2.5469-1.6953 5.0898 0 7.6367l14.426 19.516-11.879 11.879-19.516-14.426c-2.5469-1.6953-5.0898-1.6953-7.6367 0-11.031 7.6367-22.91 12.727-36.484 15.273-2.5469 0.84766-5.0898 2.5469-5.0898 5.0898l-3.3945 22.914h-16.969l-3.3945-23.758c-0.84766-2.5469-2.5469-5.0898-5.0898-5.0898-12.727-2.5469-25.453-7.6367-36.484-15.273-2.5469-1.6953-5.0898-1.6953-7.6367 0l-19.516 14.426-11.879-11.879 14.426-19.516c1.6953-2.5469 1.6953-5.0898 0-7.6367-7.6367-11.031-12.727-22.91-15.273-36.484-0.84766-2.5469-2.5469-5.0898-5.0898-5.0898l-23.758-3.3945v-16.969l23.758-3.3945c3.3906-0.003906 5.0898-2.5469 5.9375-5.0938z" fill="#000100"/>
  <path d="m350 267.27c36.484 0 65.332-29.695 65.332-65.332 0-35.637-28.848-66.184-65.332-66.184s-65.332 29.695-65.332 65.332c0 35.637 28.848 66.184 65.332 66.184zm0-118.79c28.848 0 52.605 23.758 52.605 52.605s-23.758 53.457-52.605 53.457-52.605-23.758-52.605-52.605c0-28.852 23.758-53.457 52.605-53.457z" fill="#000100"/>
  <path d="m506.97 50.062h33.938c3.3945 0 6.7891-2.5469 6.7891-6.7891v-33.938c0-3.3945-2.5469-6.7891-6.7891-6.7891h-33.938c-3.3945 0-6.7891 2.5469-6.7891 6.7891v8.4844h-127.27v-8.4844c0-3.3945-2.5469-6.7891-6.7891-6.7891h-33.938c-3.3945 0-6.7891 2.5469-6.7891 6.7891v8.4844l-124.72-0.003906v-8.4844c0-3.3945-2.5469-6.7891-6.7891-6.7891h-33.938c-3.3945 0-6.7891 2.5469-6.7891 6.7891v33.938c0 3.3945 2.5469 6.7891 6.7891 6.7891h33.938c3.3945 0 6.7891-2.5469 6.7891-6.7891v-12.723h81.453c-59.395 24.605-102.67 79.758-110.3 145.94h-11.879c-3.3945 0-6.7891 2.5469-6.7891 6.7891v33.938c0 3.3945 2.5469 6.7891 6.7891 6.7891h11.879v0.84766c0.84766 3.3945 4.2422 5.9375 7.6367 5.0898s5.0898-3.3945 5.0898-5.9375h8.4844c3.3945 0 6.7891-2.5469 6.7891-6.7891v-33.938c0-3.3945-2.5469-6.7891-6.7891-6.7891h-9.332c9.3359-74.668 67.879-134.06 143.39-145.09v11.879c0 3.3945 2.5469 6.7891 6.7891 6.7891h33.938c3.3945 0 6.7891-2.5469 6.7891-6.7891v-11.879c73.816 10.184 133.21 71.273 142.55 145.94h-9.332c-3.3945 0-6.7891 2.5469-6.7891 6.7891v33.938c0 3.3945 2.5469 6.7891 6.7891 6.7891h8.4844c0 3.3945 2.5469 5.9375 5.0898 5.9375 3.3945 0.84766 6.7891-1.6953 7.6367-5.0898v-0.84766h12.727c3.3945 0 6.7891-2.5469 6.7891-6.7891v-33.938c0-3.3945-2.5469-6.7891-6.7891-6.7891h-11.879c-8.4844-65.332-52.605-122.18-112-146.79h83.152v12.727c-0.84766 4.2422 2.543 6.7891 5.9375 6.7891zm5.9414-33.941h21.211v21.211h-21.211zm-324.97 21.211h-21.211v-21.211h21.211zm-0.84766 152.73v21.211h-21.211v-21.211h21.211zm173.94-152.73h-21.211l-0.003906-21.211h21.211c0.003906 7.6367 0.003906 13.574 0.003906 21.211zm173.09 152.73v21.211h-21.211v-21.211h21.211z" fill="#000100"/>

 </g>
</svg>
